<mxfile host="app.diagrams.net" modified="2023-03-01T06:46:19.024Z" agent="5.0 (Windows NT 10.0; Win64; x64) AppleWebKit/537.36 (KHTML, like Gecko) Chrome/110.0.0.0 Safari/537.36" etag="-vvQPBVBY1LZmSiVTQ8E" version="20.8.23" type="github">
  <diagram id="Z87XCZslrCXwQrkr19RX" name="Page-1">
    <mxGraphModel dx="2261" dy="707" grid="1" gridSize="10" guides="1" tooltips="1" connect="1" arrows="1" fold="1" page="1" pageScale="1" pageWidth="827" pageHeight="1169" math="0" shadow="0">
      <root>
        <mxCell id="0" />
        <mxCell id="1" parent="0" />
        <mxCell id="0DKkQV_DlRvVZHHdh2dW-18" value="" style="swimlane;startSize=0;fillColor=#FF5959;" parent="1" vertex="1">
          <mxGeometry x="-680" y="60" width="1230" height="800" as="geometry">
            <mxRectangle x="-140" y="345" width="50" height="40" as="alternateBounds" />
          </mxGeometry>
        </mxCell>
        <mxCell id="S6yvC7qdEsfKQvKiLP5z-27" value="" style="rounded=0;whiteSpace=wrap;html=1;" parent="0DKkQV_DlRvVZHHdh2dW-18" vertex="1">
          <mxGeometry x="40" y="49.900000000000006" width="175" height="40" as="geometry" />
        </mxCell>
        <mxCell id="S6yvC7qdEsfKQvKiLP5z-6" value="" style="endArrow=none;dashed=1;html=1;dashPattern=1 3;strokeWidth=2;rounded=0;entryX=0.5;entryY=1;entryDx=0;entryDy=0;startArrow=none;" parent="0DKkQV_DlRvVZHHdh2dW-18" source="QYz8oIN1GEiqAUlNkPk4-4" target="S6yvC7qdEsfKQvKiLP5z-3" edge="1">
          <mxGeometry width="50" height="50" relative="1" as="geometry">
            <mxPoint x="821.35" y="669.9" as="sourcePoint" />
            <mxPoint x="967.6" y="259.9" as="targetPoint" />
          </mxGeometry>
        </mxCell>
        <mxCell id="S6yvC7qdEsfKQvKiLP5z-9" value="" style="endArrow=none;html=1;rounded=0;" parent="0DKkQV_DlRvVZHHdh2dW-18" edge="1">
          <mxGeometry width="50" height="50" relative="1" as="geometry">
            <mxPoint x="25" y="159.9" as="sourcePoint" />
            <mxPoint x="520" y="159.9" as="targetPoint" />
          </mxGeometry>
        </mxCell>
        <mxCell id="S6yvC7qdEsfKQvKiLP5z-10" value="" style="endArrow=none;html=1;rounded=0;" parent="0DKkQV_DlRvVZHHdh2dW-18" edge="1">
          <mxGeometry width="50" height="50" relative="1" as="geometry">
            <mxPoint x="789.23" y="159.9" as="sourcePoint" />
            <mxPoint x="1029.1" y="160" as="targetPoint" />
          </mxGeometry>
        </mxCell>
        <mxCell id="S6yvC7qdEsfKQvKiLP5z-11" value="Client" style="text;strokeColor=none;align=center;fillColor=none;html=1;verticalAlign=middle;whiteSpace=wrap;rounded=0;" parent="0DKkQV_DlRvVZHHdh2dW-18" vertex="1">
          <mxGeometry x="25" y="109.9" width="60" height="30" as="geometry" />
        </mxCell>
        <mxCell id="S6yvC7qdEsfKQvKiLP5z-12" value="Server" style="text;strokeColor=none;align=center;fillColor=none;html=1;verticalAlign=middle;whiteSpace=wrap;rounded=0;" parent="0DKkQV_DlRvVZHHdh2dW-18" vertex="1">
          <mxGeometry x="799.1" y="109.9" width="60" height="30" as="geometry" />
        </mxCell>
        <mxCell id="S6yvC7qdEsfKQvKiLP5z-26" value="Krpanoroom&amp;nbsp; :&amp;nbsp;&lt;br&gt;add anchor(同步環景)" style="text;strokeColor=none;align=center;fillColor=none;html=1;verticalAlign=middle;whiteSpace=wrap;rounded=0;" parent="0DKkQV_DlRvVZHHdh2dW-18" vertex="1">
          <mxGeometry x="52.5" y="54.900000000000006" width="150" height="30" as="geometry" />
        </mxCell>
        <mxCell id="S6yvC7qdEsfKQvKiLP5z-30" value="RoomModule/&lt;br&gt;KrpanoroomClient" style="rounded=0;whiteSpace=wrap;html=1;" parent="0DKkQV_DlRvVZHHdh2dW-18" vertex="1">
          <mxGeometry x="249.9999999999999" y="169.9" width="150.01" height="30" as="geometry" />
        </mxCell>
        <mxCell id="S6yvC7qdEsfKQvKiLP5z-33" value="" style="rounded=0;whiteSpace=wrap;html=1;rotation=90;" parent="0DKkQV_DlRvVZHHdh2dW-18" vertex="1">
          <mxGeometry x="111.58" y="464.78" width="426.84" height="20" as="geometry" />
        </mxCell>
        <mxCell id="S6yvC7qdEsfKQvKiLP5z-32" value="" style="endArrow=none;dashed=1;html=1;dashPattern=1 3;strokeWidth=2;rounded=0;entryX=0.5;entryY=1;entryDx=0;entryDy=0;startArrow=none;" parent="0DKkQV_DlRvVZHHdh2dW-18" source="S6yvC7qdEsfKQvKiLP5z-33" target="S6yvC7qdEsfKQvKiLP5z-30" edge="1">
          <mxGeometry width="50" height="50" relative="1" as="geometry">
            <mxPoint x="138.69999999999993" y="619.9" as="sourcePoint" />
            <mxPoint x="138.69999999999993" y="249.89999999999998" as="targetPoint" />
          </mxGeometry>
        </mxCell>
        <mxCell id="QYz8oIN1GEiqAUlNkPk4-4" value="" style="rounded=0;whiteSpace=wrap;html=1;rotation=90;spacing=4;" parent="0DKkQV_DlRvVZHHdh2dW-18" vertex="1">
          <mxGeometry x="780.13" y="525" width="129.95" height="20" as="geometry" />
        </mxCell>
        <mxCell id="MCn9pfl6cx8tljpHCmL5-1" value="" style="endArrow=classic;html=1;rounded=0;entryX=1;entryY=1;entryDx=0;entryDy=0;exitX=0;exitY=1;exitDx=0;exitDy=0;" parent="0DKkQV_DlRvVZHHdh2dW-18" source="MCn9pfl6cx8tljpHCmL5-3" target="MCn9pfl6cx8tljpHCmL5-3" edge="1">
          <mxGeometry width="50" height="50" relative="1" as="geometry">
            <mxPoint x="31.039999999999964" y="266.7399999999999" as="sourcePoint" />
            <mxPoint x="470" y="310.9" as="targetPoint" />
          </mxGeometry>
        </mxCell>
        <mxCell id="MCn9pfl6cx8tljpHCmL5-3" value="addAnchor" style="text;strokeColor=none;align=center;fillColor=none;html=1;verticalAlign=middle;whiteSpace=wrap;rounded=0;" parent="0DKkQV_DlRvVZHHdh2dW-18" vertex="1">
          <mxGeometry x="80" y="242.71999999999997" width="230" height="30" as="geometry" />
        </mxCell>
        <mxCell id="MCn9pfl6cx8tljpHCmL5-5" value="frontend UI&lt;br&gt;(teacher)" style="rounded=0;whiteSpace=wrap;html=1;" parent="0DKkQV_DlRvVZHHdh2dW-18" vertex="1">
          <mxGeometry x="25" y="169.9" width="85" height="30" as="geometry" />
        </mxCell>
        <mxCell id="MCn9pfl6cx8tljpHCmL5-6" value="" style="rounded=0;whiteSpace=wrap;html=1;rotation=90;spacing=4;" parent="0DKkQV_DlRvVZHHdh2dW-18" vertex="1">
          <mxGeometry y="311.9" width="135" height="20" as="geometry" />
        </mxCell>
        <mxCell id="MCn9pfl6cx8tljpHCmL5-7" value="" style="endArrow=none;dashed=1;html=1;dashPattern=1 3;strokeWidth=2;rounded=0;entryX=0.5;entryY=1;entryDx=0;entryDy=0;exitX=0;exitY=0.5;exitDx=0;exitDy=0;" parent="0DKkQV_DlRvVZHHdh2dW-18" source="MCn9pfl6cx8tljpHCmL5-6" target="MCn9pfl6cx8tljpHCmL5-5" edge="1">
          <mxGeometry width="50" height="50" relative="1" as="geometry">
            <mxPoint x="420" y="329.9" as="sourcePoint" />
            <mxPoint x="470" y="279.9" as="targetPoint" />
          </mxGeometry>
        </mxCell>
        <mxCell id="S6yvC7qdEsfKQvKiLP5z-3" value="RoomModule/&lt;br&gt;Krpanoroom.js" style="rounded=0;whiteSpace=wrap;html=1;" parent="0DKkQV_DlRvVZHHdh2dW-18" vertex="1">
          <mxGeometry x="789.23" y="179.9" width="111.75" height="30" as="geometry" />
        </mxCell>
        <mxCell id="dILGxwlcteWHyGqmObZT-1" value="RoomModule/&lt;br&gt;KrpanoInterface" style="rounded=0;whiteSpace=wrap;html=1;" vertex="1" parent="0DKkQV_DlRvVZHHdh2dW-18">
          <mxGeometry x="459.9899999999999" y="169.9" width="150.01" height="30" as="geometry" />
        </mxCell>
        <mxCell id="dILGxwlcteWHyGqmObZT-2" value="" style="endArrow=classic;html=1;rounded=0;exitX=0;exitY=1;exitDx=0;exitDy=0;entryX=1;entryY=1;entryDx=0;entryDy=0;" edge="1" parent="0DKkQV_DlRvVZHHdh2dW-18" source="dILGxwlcteWHyGqmObZT-4" target="dILGxwlcteWHyGqmObZT-4">
          <mxGeometry width="50" height="50" relative="1" as="geometry">
            <mxPoint x="500" y="370" as="sourcePoint" />
            <mxPoint x="550" y="316" as="targetPoint" />
          </mxGeometry>
        </mxCell>
        <mxCell id="dILGxwlcteWHyGqmObZT-4" value="getLookAt" style="text;strokeColor=none;align=center;fillColor=none;html=1;verticalAlign=middle;whiteSpace=wrap;rounded=0;" vertex="1" parent="0DKkQV_DlRvVZHHdh2dW-18">
          <mxGeometry x="336" y="265.04" width="190" height="30" as="geometry" />
        </mxCell>
        <mxCell id="dILGxwlcteWHyGqmObZT-6" value="return lookAt" style="text;strokeColor=none;align=center;fillColor=none;html=1;verticalAlign=middle;whiteSpace=wrap;rounded=0;" vertex="1" parent="0DKkQV_DlRvVZHHdh2dW-18">
          <mxGeometry x="336" y="301.90000000000003" width="190" height="30" as="geometry" />
        </mxCell>
        <mxCell id="dILGxwlcteWHyGqmObZT-5" value="" style="endArrow=classic;html=1;rounded=0;exitX=1;exitY=1;exitDx=0;exitDy=0;entryX=0;entryY=1;entryDx=0;entryDy=0;" edge="1" parent="0DKkQV_DlRvVZHHdh2dW-18" source="dILGxwlcteWHyGqmObZT-6" target="dILGxwlcteWHyGqmObZT-6">
          <mxGeometry width="50" height="50" relative="1" as="geometry">
            <mxPoint x="500" y="370" as="sourcePoint" />
            <mxPoint x="550" y="320" as="targetPoint" />
          </mxGeometry>
        </mxCell>
        <mxCell id="dILGxwlcteWHyGqmObZT-7" value="socket.emit(&#39;anchor-control&#39;,&amp;nbsp;&lt;br&gt;AnchorSyncAction.generateAddAction(&lt;br&gt;ownerId,&lt;br&gt;name,&lt;br&gt;sceneName,&lt;br&gt;ath,&lt;br&gt;atv))" style="text;strokeColor=none;align=center;fillColor=none;html=1;verticalAlign=middle;whiteSpace=wrap;rounded=0;" vertex="1" parent="0DKkQV_DlRvVZHHdh2dW-18">
          <mxGeometry x="335" y="340" width="500" height="140" as="geometry" />
        </mxCell>
        <mxCell id="dILGxwlcteWHyGqmObZT-8" value="" style="endArrow=classic;html=1;rounded=0;exitX=0;exitY=1;exitDx=0;exitDy=0;entryX=1;entryY=1;entryDx=0;entryDy=0;" edge="1" parent="0DKkQV_DlRvVZHHdh2dW-18" source="dILGxwlcteWHyGqmObZT-7" target="dILGxwlcteWHyGqmObZT-7">
          <mxGeometry width="50" height="50" relative="1" as="geometry">
            <mxPoint x="500" y="330" as="sourcePoint" />
            <mxPoint x="550" y="280" as="targetPoint" />
          </mxGeometry>
        </mxCell>
        <mxCell id="dILGxwlcteWHyGqmObZT-9" value="socket.emit(&#39;consume&#39;,{&lt;br&gt;channelName: &#39;global_anchor&#39;,&lt;br&gt;data: AnchorData})" style="text;strokeColor=none;align=center;fillColor=none;html=1;verticalAlign=middle;whiteSpace=wrap;rounded=0;" vertex="1" parent="0DKkQV_DlRvVZHHdh2dW-18">
          <mxGeometry x="336" y="490" width="500" height="100" as="geometry" />
        </mxCell>
        <mxCell id="dILGxwlcteWHyGqmObZT-10" value="" style="endArrow=classic;html=1;rounded=0;exitX=1;exitY=1;exitDx=0;exitDy=0;entryX=0;entryY=1;entryDx=0;entryDy=0;" edge="1" parent="0DKkQV_DlRvVZHHdh2dW-18" source="dILGxwlcteWHyGqmObZT-9" target="dILGxwlcteWHyGqmObZT-9">
          <mxGeometry width="50" height="50" relative="1" as="geometry">
            <mxPoint x="500" y="360" as="sourcePoint" />
            <mxPoint x="550" y="310" as="targetPoint" />
          </mxGeometry>
        </mxCell>
        <mxCell id="dILGxwlcteWHyGqmObZT-11" value="&amp;nbsp; &amp;nbsp; &amp;nbsp; &amp;nbsp; &amp;nbsp;sceneData.addAnchor(AnchorData)" style="text;strokeColor=none;align=center;fillColor=none;html=1;verticalAlign=middle;whiteSpace=wrap;rounded=0;" vertex="1" parent="0DKkQV_DlRvVZHHdh2dW-18">
          <mxGeometry x="860" y="510" width="280" height="50" as="geometry" />
        </mxCell>
        <mxCell id="dILGxwlcteWHyGqmObZT-12" value="" style="endArrow=classic;html=1;rounded=0;exitX=0;exitY=0;exitDx=0;exitDy=0;entryX=0;entryY=1;entryDx=0;entryDy=0;" edge="1" parent="0DKkQV_DlRvVZHHdh2dW-18" source="dILGxwlcteWHyGqmObZT-11" target="dILGxwlcteWHyGqmObZT-11">
          <mxGeometry width="50" height="50" relative="1" as="geometry">
            <mxPoint x="730" y="430" as="sourcePoint" />
            <mxPoint x="780" y="380" as="targetPoint" />
            <Array as="points">
              <mxPoint x="910" y="510" />
              <mxPoint x="910" y="560" />
            </Array>
          </mxGeometry>
        </mxCell>
        <mxCell id="dILGxwlcteWHyGqmObZT-13" value="" style="rounded=0;whiteSpace=wrap;html=1;rotation=90;" vertex="1" parent="0DKkQV_DlRvVZHHdh2dW-18">
          <mxGeometry x="522.52" y="642.53" width="24.95" height="20" as="geometry" />
        </mxCell>
        <mxCell id="dILGxwlcteWHyGqmObZT-15" value="addAnchor" style="text;strokeColor=none;align=center;fillColor=none;html=1;verticalAlign=middle;whiteSpace=wrap;rounded=0;" vertex="1" parent="0DKkQV_DlRvVZHHdh2dW-18">
          <mxGeometry x="336" y="620" width="190" height="30" as="geometry" />
        </mxCell>
        <mxCell id="dILGxwlcteWHyGqmObZT-16" value="" style="endArrow=classic;html=1;rounded=0;exitX=0;exitY=1;exitDx=0;exitDy=0;entryX=1;entryY=1;entryDx=0;entryDy=0;" edge="1" parent="0DKkQV_DlRvVZHHdh2dW-18" source="dILGxwlcteWHyGqmObZT-15" target="dILGxwlcteWHyGqmObZT-15">
          <mxGeometry width="50" height="50" relative="1" as="geometry">
            <mxPoint x="460" y="510" as="sourcePoint" />
            <mxPoint x="510" y="460" as="targetPoint" />
          </mxGeometry>
        </mxCell>
        <mxCell id="dILGxwlcteWHyGqmObZT-17" value="" style="endArrow=none;dashed=1;html=1;dashPattern=1 3;strokeWidth=2;rounded=0;entryX=0.5;entryY=1;entryDx=0;entryDy=0;exitX=0;exitY=0.5;exitDx=0;exitDy=0;" edge="1" parent="0DKkQV_DlRvVZHHdh2dW-18" source="dILGxwlcteWHyGqmObZT-3" target="dILGxwlcteWHyGqmObZT-1">
          <mxGeometry width="50" height="50" relative="1" as="geometry">
            <mxPoint x="460" y="510" as="sourcePoint" />
            <mxPoint x="510" y="460" as="targetPoint" />
          </mxGeometry>
        </mxCell>
        <mxCell id="dILGxwlcteWHyGqmObZT-18" value="" style="endArrow=none;dashed=1;html=1;dashPattern=1 3;strokeWidth=2;rounded=0;exitX=0;exitY=0.5;exitDx=0;exitDy=0;" edge="1" parent="0DKkQV_DlRvVZHHdh2dW-18" source="dILGxwlcteWHyGqmObZT-13">
          <mxGeometry width="50" height="50" relative="1" as="geometry">
            <mxPoint x="-60" y="620" as="sourcePoint" />
            <mxPoint x="535" y="340" as="targetPoint" />
          </mxGeometry>
        </mxCell>
        <mxCell id="dILGxwlcteWHyGqmObZT-3" value="" style="rounded=0;whiteSpace=wrap;html=1;rotation=90;" vertex="1" parent="0DKkQV_DlRvVZHHdh2dW-18">
          <mxGeometry x="505.05" y="304.22" width="59.9" height="20" as="geometry" />
        </mxCell>
      </root>
    </mxGraphModel>
  </diagram>
</mxfile>
